HIERARCHY
ROOT Hips
{
	OFFSET 0.000000 0.000000 0.000000 
	CHANNELS 6 Xposition Yposition Zposition Zrotation Yrotation Xrotation
	JOINT LeftUpLeg
	{
		OFFSET 1.363060 -1.794630 0.839290 
		CHANNELS 3 Zrotation Yrotation Xrotation
		JOINT LeftLeg
		{
			OFFSET 2.448110 -6.726130 0.000000 
			CHANNELS 3 Zrotation Yrotation Xrotation
			JOINT LeftFoot
			{
				OFFSET 2.562200 -7.039590 0.000000 
				CHANNELS 3 Zrotation Yrotation Xrotation
				JOINT LeftToeBase
				{
					OFFSET 0.157640 -0.433110 2.322550 
					CHANNELS 3 Zrotation Yrotation Xrotation
					End Site
					{
						OFFSET 0.000000 0.000000 0.000000 
					}
				}
			}
		}
	}
	JOINT RightUpLeg
	{
		OFFSET -1.305520 -1.794630 0.839290 
		CHANNELS 3 Zrotation Yrotation Xrotation
		JOINT RightLeg
		{
			OFFSET -2.542530 -6.985550 0.000000 
			CHANNELS 3 Zrotation Yrotation Xrotation
			JOINT RightFoot
			{
				OFFSET -2.568260 -7.056230 0.000000 
				CHANNELS 3 Zrotation Yrotation Xrotation
				JOINT RightToeBase
				{
					OFFSET -0.164730 -0.452590 2.363150 
					CHANNELS 3 Zrotation Yrotation Xrotation
					End Site
					{
						OFFSET 0.000000 0.000000 0.000000 
					}
				}
			}
		}
	}
	JOINT Spine
	{
		OFFSET 0.028270 2.035590 -0.193380 
		CHANNELS 3 Zrotation Yrotation Xrotation
		JOINT Spine1
		{
			OFFSET 0.056720 2.048850 -0.042750 
			CHANNELS 3 Zrotation Yrotation Xrotation
			JOINT Neck1
			{
				OFFSET -0.054170 1.746240 0.172020 
				CHANNELS 3 Zrotation Yrotation Xrotation
				JOINT Head
				{
					OFFSET 0.104070 1.761360 -0.123970 
					CHANNELS 3 Zrotation Yrotation Xrotation
					End Site
					{
						OFFSET 0.000000 0.000000 0.000000 
					}
				}
			}
			JOINT LeftArm
			{
				OFFSET 3.362410 1.200890 -0.311210 
				CHANNELS 3 Zrotation Yrotation Xrotation
				JOINT LeftForeArm
				{
					OFFSET 4.983000 -0.000000 -0.000000 
					CHANNELS 3 Zrotation Yrotation Xrotation
					JOINT LeftHand
					{
						OFFSET 3.483560 -0.000000 -0.000000 
						CHANNELS 3 Zrotation Yrotation Xrotation
						JOINT LeftHandIndex1
						{
							OFFSET 0.715260 -0.000000 -0.000000 
							CHANNELS 3 Zrotation Yrotation Xrotation
							End Site
							{
								OFFSET 0.000000 0.000000 0.000000 
							}
						}
					}
				}
			}
			JOINT RightArm
			{
				OFFSET -3.136600 1.374050 -0.404650 
				CHANNELS 3 Zrotation Yrotation Xrotation
				JOINT RightForeArm
				{
					OFFSET -5.241900 -0.000000 -0.000000 
					CHANNELS 3 Zrotation Yrotation Xrotation
					JOINT RightHand
					{
						OFFSET -3.444170 -0.000000 -0.000000 
						CHANNELS 3 Zrotation Yrotation Xrotation
						JOINT RightHandIndex1
						{
							OFFSET -0.622530 -0.000000 -0.000000 
							CHANNELS 3 Zrotation Yrotation Xrotation
							End Site
							{
								OFFSET 0.000000 0.000000 0.000000 
							}
						}
					}
				}
			}
		}
	}
}
MOTION
Frames: 6
Frame Time: 0.041667
9.332386 18.091358 -43.633772 -4.120329 -67.136833 6.204878 -6.138153 -32.211231 -13.414896 -1.821753 8.617593 22.722680 6.191376 -10.799445 4.321784 6.175200 -14.596000 -45.680900 28.438430 13.917405 3.629707 2.818258 -5.929999 20.640635 5.176590 -18.235509 -12.029581 -0.114200 2.178600 -5.999600 0.933615 12.765312 1.721496 -9.349252 5.767422 -8.538687 -3.895849 14.958838 -5.082791 -4.759800 6.161600 0.972500 -57.742552 41.968428 -10.112214 32.111400 -32.301601 -10.127253 1.728785 1.156195 0.443848 -7.125000 0.000000 0.000000 48.103931 32.539489 46.831319 -40.900127 40.709172 -17.698831 0.938091 0.648290 8.459052 7.125000 0.000000 0.000000 
9.372777 18.122392 -43.655448 -3.744214 -66.157772 5.994247 -5.811772 -33.745123 -13.208453 -1.838524 8.457181 22.430208 6.390982 -11.763158 5.388831 2.947200 -10.609100 -30.972700 28.302087 13.811925 3.357541 2.863812 -5.871406 20.394796 5.405854 -18.831416 -11.916308 -0.067800 1.680000 -4.622100 1.324568 12.708822 1.754617 -9.241861 5.748123 -8.496451 -3.808638 14.794948 -5.090751 -4.727400 6.093000 0.917400 -59.704696 42.680403 -10.102658 31.881145 -31.934017 -10.108357 1.841080 1.165871 0.689380 -7.125000 0.000000 0.000000 47.991484 32.353050 48.114592 -42.161962 41.511431 -18.613296 0.891303 0.649651 8.170179 7.125000 0.000000 0.000000 
9.417077 18.117536 -43.679493 -3.449890 -65.116840 6.212214 -5.813865 -32.757109 -14.036477 -1.952447 8.586820 22.267080 4.374813 -5.606738 2.643776 6.185500 -14.605700 -45.721700 28.190146 13.839716 2.746849 2.895262 -5.863784 20.248766 5.378649 -18.703821 -11.675175 -0.008900 0.609100 -1.673800 1.499574 12.624296 1.771137 -9.194586 5.731413 -8.148382 -3.648010 14.705301 -5.106101 -4.656500 6.052400 0.900500 -61.631986 43.111942 -10.301435 31.770993 -31.644471 -10.087200 1.896471 1.180954 0.951714 -7.125000 0.000000 0.000000 47.722482 31.980090 49.199309 -43.872271 42.546843 -19.908094 0.833773 0.646737 7.889229 7.125000 0.000000 0.000000 
9.468247 18.124524 -43.713606 -3.009396 -63.786964 5.802984 -6.033353 -32.279078 -14.416725 -2.062714 8.603541 22.119473 2.973431 -2.200468 1.544801 7.060300 -15.382400 -49.101900 28.185291 13.745708 2.608447 2.922634 -5.843365 20.170120 5.537754 -19.212393 -12.073753 0.000000 -0.019000 0.052300 1.677727 12.385036 1.913880 -9.219887 5.621004 -8.171034 -3.282162 14.728261 -5.164146 -4.519900 6.066000 0.851900 -63.537701 43.595964 -10.369266 31.794625 -31.437610 -10.076643 1.907912 1.202943 1.160457 -7.125000 0.000000 0.000000 47.808559 31.799437 50.275325 -45.263966 43.303301 -20.915612 0.789947 0.628041 7.937643 7.125000 0.000000 0.000000 
9.523089 18.131394 -43.754708 -2.613912 -62.343755 5.526005 -6.234146 -31.559421 -14.973950 -2.163905 8.589868 21.937563 2.133755 -0.325409 1.534362 6.739000 -15.108100 -47.880200 28.218842 13.804206 2.389356 2.950358 -5.863410 20.166920 5.805851 -20.088217 -12.796414 -0.011200 -0.683100 1.877100 2.045878 12.200159 1.871538 -9.064465 5.544313 -8.299168 -3.043318 14.578259 -5.171819 -4.434100 6.009700 0.774500 -65.429546 43.819213 -10.495910 31.587854 -31.073984 -9.978025 1.920079 1.235826 1.513223 -7.125000 0.000000 0.000000 47.655344 31.260500 51.152137 -46.649018 44.082574 -22.022611 0.722758 0.647156 8.142858 7.125000 0.000000 0.000000 
9.572364 18.142528 -43.778635 -2.581468 -61.045798 5.434213 -6.396805 -31.010212 -15.278971 -2.211257 8.592891 21.886298 1.714721 0.582084 1.779210 5.565600 -13.993700 -43.212300 28.355391 13.713796 2.340244 2.989931 -5.828857 20.056033 5.947092 -20.597433 -13.348780 -0.043700 -1.348900 3.709300 2.401512 12.135467 1.878615 -9.126549 5.500914 -8.353399 -2.868479 14.371339 -5.165138 -4.370400 5.920200 0.724000 -67.193718 43.754762 -10.997606 31.033579 -30.504061 -9.785198 1.963028 1.265355 2.209909 -7.125000 0.000000 0.000000 47.460710 30.507848 52.054405 -48.092798 44.882068 -23.288271 0.687647 0.639230 7.871298 7.125000 0.000000 0.000000 
